Coordinates
version=1
nRows=12
nColumns=19
inDegrees=yes

Units are S.I. units (second, meters, Newtons, ...)
If the header above contains a line with 'inDegrees', this indicates whether rotational values are in degrees (yes) or radians (no).

endheader
time	pelvis_tilt	pelvis_list	pelvis_rotation	pelvis_tx	pelvis_ty	pelvis_tz	hip_flexion_r	hip_adduction_r	hip_rotation_r	knee_angle_r	knee_angle_r_beta	ankle_angle_r	hip_flexion_l	hip_adduction_l	hip_rotation_l	knee_angle_l	knee_angle_l_beta	ankle_angle_l
     13.23333333	      5.43666975	      3.51778161	     -3.42733415	      2.11669361	      0.87783404	      1.01071750	    -22.38113885	     -8.61025130	    -17.23169347	     46.33883311	      0.80876521	    -13.90092695	     19.07452413	      4.59547608	     -5.81602358	     19.30712474	      0.33697290	     -6.68447846
     13.24000000	      6.26467050	      4.01072326	     -2.96961031	      2.11717235	      0.87493025	      1.00955674	    -22.23234694	     -9.42857044	    -17.32127955	     49.85502638	      0.87013436	    -13.04609936	     18.15129722	      5.25988900	     -6.91667400	     21.02401852	      0.36693835	     -5.50186000
     13.24666667	      6.42225675	      4.31704114	     -2.73841871	      2.11739286	      0.87116636	      1.00860572	    -21.03747015	    -10.03772729	    -16.75101173	     53.65400757	      0.93643909	    -12.12838925	     18.03526299	      5.56358951	     -8.07564931	     23.11605988	      0.40345135	     -4.06362738
     13.25333333	      6.89096083	      4.64782348	     -2.37165213	      2.11743535	      0.86741446	      1.00769635	    -20.21212688	    -10.54906722	    -16.30665936	     57.28573623	      0.99982471	    -11.20325806	     17.52143377	      5.97411189	     -8.72084582	     25.23483117	      0.44043089	     -2.22436424
     13.26000000	      7.32912643	      4.94469686	     -1.92986121	      2.11713995	      0.86337467	      1.00671891	    -19.26307395	    -10.98912838	    -15.90898286	     60.93270078	      1.06347625	    -10.32155205	     17.08622448	      6.39975823	     -8.90785104	     27.52945551	      0.48047964	     -0.10683616
     13.26666667	      7.78759976	      5.23323338	     -1.43823571	      2.11657296	      0.85921690	      1.00577357	    -18.27593812	    -11.38225802	    -15.56302584	     64.50379168	      1.12580354	     -9.50838889	     16.62750550	      6.84710521	     -8.76929202	     29.86280580	      0.52120429	      2.23580741
     13.27333333	      8.04480284	      5.49310881	     -0.89773562	      2.11569932	      0.85475651	      1.00478378	    -16.95205776	    -11.71158820	    -15.17937267	     68.08416457	      1.18829284	     -8.74350417	     16.44210253	      7.28881246	     -8.35437335	     32.30962547	      0.56390934	      4.69991657
     13.28000000	      8.84451606	      5.92070650	     -0.39657098	      2.11447684	      0.85081605	      1.00390753	    -16.21438334	    -12.26187581	    -14.97151455	     71.46555805	      1.24730929	     -8.07525746	     15.57363571	      7.94057230	     -7.80155112	     34.54345801	      0.60289708	      7.15220817
     13.28666667	      8.71601062	      6.07308982	      0.15982297	      2.11288991	      0.84603143	      1.00295682	    -14.18591571	    -12.47218208	    -14.46504492	     74.99095389	      1.30883905	     -7.47439997	     15.87157914	      8.27132031	     -7.11072661	     37.06285458	      0.64686884	      9.58454413
     13.29333333	      8.97631815	      6.37109505	      0.64275112	      2.11100175	      0.84178330	      1.00216084	    -12.53451196	    -12.88318311	    -14.02809613	     78.32109922	      1.36696106	     -6.93697809	     15.63748684	      8.75274391	     -6.42891459	     39.32215730	      0.68630111	     11.86543042
     13.30000000	      9.23687261	      6.67828427	      1.04598428	      2.10883956	      0.83774765	      1.00150312	    -10.74742131	    -13.30955672	    -13.47418102	     81.52655594	      1.42290683	     -6.45050733	     15.34058520	      9.20069640	     -5.82968579	     41.42741424	      0.72304478	     13.94897215
     13.30666667	     10.10206190	      7.06696839	      1.40114925	      2.10642535	      0.83458212	      1.00101642	     -9.63124055	    -13.83452731	    -13.03400650	     84.41465453	      1.47331366	     -6.05796759	     14.21679094	      9.69392199	     -5.25220812	     43.20461123	      0.75406272	     15.91008171
